Coordinates
version=1
nRows=8
nColumns=40
inDegrees=yes

Units are S.I. units (second, meters, Newtons, ...)
Angles are in degrees.

endheader
time	pelvis_tilt	pelvis_list	pelvis_rotation	pelvis_tx	pelvis_ty	pelvis_tz	hip_flexion_r	hip_adduction_r	hip_rotation_r	knee_angle_r	knee_angle_r_beta	ankle_angle_r	subtalar_angle_r	mtp_angle_r	hip_flexion_l	hip_adduction_l	hip_rotation_l	knee_angle_l	knee_angle_l_beta	ankle_angle_l	subtalar_angle_l	mtp_angle_l	lumbar_extension	lumbar_bending	lumbar_rotation	arm_flex_r	arm_add_r	arm_rot_r	elbow_flex_r	pro_sup_r	wrist_flex_r	wrist_dev_r	arm_flex_l	arm_add_l	arm_rot_l	elbow_flex_l	pro_sup_l	wrist_flex_l	wrist_dev_l
     21.55750000	     -6.74296518	     -6.38533106	      4.37911006	      1.01857955	      0.92793990	      0.48239134	     12.50323719	      4.96536834	    -19.27231251	     12.84529477	     12.84529477	      9.45103117	      1.02485360	     -4.06400234	     43.43114869	    -10.58840391	      6.13343714	     64.53086553	     64.53086553	      6.22844025	    -17.65244423	      9.11396107	    -12.79773119	      4.95348398	      4.46117622	     25.44572787	    -18.66096577	      2.61446366	     53.21576596	     45.30506921	      0.00000000	      0.00000000	      2.27477407	     -8.89576302	     -2.85033931	     47.20195844	     47.17344950	      0.00000000	      0.00000000
     21.56900000	     -6.77592276	     -6.45350187	      4.52236236	      1.01767833	      0.92787422	      0.48260691	     11.76653873	      5.19116195	    -19.24385783	     12.30129434	     12.30129434	      9.69812527	      1.16274947	     -4.10685244	     44.25277091	    -10.41841135	      5.98670577	     61.93573897	     61.93573897	      6.34614022	    -17.85231993	      9.78471193	    -12.90729506	      5.00057076	      4.25928971	     28.19839992	    -18.52115311	      2.68969974	     55.05894175	     45.25329786	      0.00000000	      0.00000000	      0.79990333	     -8.80903295	     -2.79578966	     45.06184899	     47.12594358	      0.00000000	      0.00000000
     21.58050000	     -6.86210540	     -6.55611827	      4.60223620	      1.01679577	      0.92765421	      0.48272849	     11.10534744	      5.42908613	    -19.28778013	     11.78157331	     11.78157331	      9.85534467	      1.44849369	     -4.33941645	     44.97849313	    -10.26405558	      5.88009885	     59.11991143	     59.11991143	      6.69592052	    -17.82513764	     10.97085016	    -12.89519783	      5.12865680	      4.60325513	     30.57987128	    -19.18703782	      4.10877689	     57.23483549	     45.14473643	      0.00000000	      0.00000000	      0.60630736	     -8.24422323	     -3.26471576	     40.33825894	     47.10366899	      0.00000000	      0.00000000
     21.59200000	     -6.93607553	     -6.65351069	      4.67001868	      1.01607549	      0.92735371	      0.48273456	     10.41250645	      5.65871160	    -19.26059292	     11.26943020	     11.26943020	     10.12642502	      1.71482928	     -4.39267293	     45.45471921	    -10.06672859	      5.84476827	     55.98912048	     55.98912048	      6.83324299	    -17.76134010	     11.42787403	    -12.94605630	      5.21426935	      4.48915204	     33.16469135	    -18.96583433	      4.13239072	     59.10495380	     45.09563059	      0.00000000	      0.00000000	     -0.87653923	     -8.16844653	     -3.22259994	     38.60516315	     47.05939232	      0.00000000	      0.00000000
     21.60350000	     -7.02271447	     -6.77551171	      4.69663422	      1.01546605	      0.92697542	      0.48267450	      9.72316858	      5.90274228	    -19.31789380	     10.74667811	     10.74667811	     10.35877620	      2.14954334	     -4.45779039	     45.74691166	     -9.89533397	      5.85416900	     52.61463115	     52.61463115	      6.97237960	    -17.47347069	     11.77702895	    -12.96586589	      5.32652409	      4.45712828	     35.67044814	    -18.81475506	      4.43812285	     61.08383379	     45.03277309	      0.00000000	      0.00000000	     -2.15342761	     -8.03745070	     -3.13894462	     36.56774507	     47.01043667	      0.00000000	      0.00000000
     21.61500000	     -7.15386440	     -6.91884788	      4.66123344	      1.01496276	      0.92646029	      0.48249514	      9.08488183	      6.12797169	    -19.55519947	     10.27216130	     10.27216130	     10.65053003	      2.95721968	     -4.54134727	     45.85829755	     -9.75734971	      5.90003905	     48.99424208	     48.99424208	      6.98134677	    -17.02137892	     11.57350803	    -12.92143842	      5.49675369	      4.89823759	     37.77624377	    -19.48159302	      5.70389635	     63.73297623	     44.92604183	      0.00000000	      0.00000000	     -2.63754519	     -7.72944301	     -3.05745094	     33.27647508	     46.93979373	      0.00000000	      0.00000000
     21.62650000	     -7.39701026	     -7.24148640	      4.56034182	      1.01453039	      0.92553451	      0.48235688	      8.75751089	      6.51383417	    -19.50258194	     10.13578346	     10.13578346	     10.94304011	      3.12973152	     -4.68588502	     45.98806558	     -9.78000182	      6.13757726	     45.33091103	     45.33091103	      7.37142288	    -16.20097207	     11.92887451	    -12.65205027	      5.81481866	      5.56805642	     39.88192157	    -19.75463110	      5.42021477	     64.66882887	     44.91573399	      0.00000000	      0.00000000	     -4.00369392	     -7.58424128	     -3.02096351	     32.64794656	     46.91079773	      0.00000000	      0.00000000
     21.63800000	     -7.33912768	     -7.24217031	      4.52275078	      1.01466114	      0.92521861	      0.48191169	      7.61476646	      6.68145655	    -19.61497484	      9.18106345	      9.18106345	     11.19636282	      4.11527929	     -4.61758557	     45.42509861	     -9.56192427	      6.15268976	     41.43390874	     41.43390874	      7.67626904	    -15.22350102	     12.16343448	    -12.87831434	      5.81178142	      4.87144426	     42.39203930	    -18.63789048	      5.77420246	     67.50902605	     44.82508771	      0.00000000	      0.00000000	     -5.59101486	     -7.55123083	     -2.69244753	     31.10960104	     46.82617747	      0.00000000	      0.00000000
